<?xml version="1.0" encoding="iso-8859-1"?>
<!-- Uploaded to: SVG Repo, www.svgrepo.com, Generator: SVG Repo Mixer Tools -->
<svg fill="#FFFFFF" version="1.1" id="Layer_1" xmlns="http://www.w3.org/2000/svg" xmlns:xlink="http://www.w3.org/1999/xlink" 
	 viewBox="0 0 496 496" xml:space="preserve">
<g>
	<g>
		<g>
			<path d="M351.4,148.896C365.832,142.856,376,128.6,376,112V92.84c0-20.744-10.304-40-27.56-51.504
				C335.64,32.816,328,18.536,328,3.16V0h-16v3.16c0,20.744,10.304,40,27.56,51.504c12.8,8.52,20.44,22.8,20.44,38.176V112
				c0,13.232-10.768,24-24,24h-8V96h-16v76c0,6.616-5.384,12-12,12c-6.616,0-12-5.384-12-12v-20h-16v12c0,6.616-5.384,12-12,12
				c-6.616,0-12-5.384-12-12v-12h-16v12c0,6.616-5.384,12-12,12c-6.616,0-12-5.384-12-12v-12h-16v4c0,6.616-5.384,12-12,12
				c-6.616,0-12-5.384-12-12V95.32c0-13.808,3.76-27.36,10.856-39.2C187.456,41.792,192,25.384,192,8.68V0h-16v8.68
				c0,13.808-3.76,27.36-10.856,39.2C156.544,62.208,152,78.616,152,95.32V144h-10.248h-3.736l-28.232,96H40v256h328h8h80V240
				h-74.24L351.4,148.896z M180,184c6.048,0,11.656-1.928,16.24-5.2c4.944,7.92,13.752,13.2,23.76,13.2
				c7.832,0,14.912-3.224,20-8.424c5.088,5.2,12.168,8.424,20,8.424c6.048,0,11.656-1.928,16.24-5.2
				c4.944,7.92,13.752,13.2,23.76,13.2c8.48,0,16-3.872,21.144-9.848l-8.8,49.848H182.24l-14.768-59.096
				C171.256,182.816,175.472,184,180,184z M147.696,167.776L165.76,240h-39.304L147.696,167.776z M360,480H56V256h49.072
				l-8.744,29.744l15.344,4.512L121.752,256h187.776l-5.4,30.608l15.752,2.784L325.768,256H360V480z M328.592,240l12.568-71.216
				L364.904,240H328.592z M416,256h24v212.688l-24-24V256z M428.688,480h-41.376L408,459.312L428.688,480z M400,444.688l-24,24V256
				h24V444.688z"/>
			<rect x="328" y="448" width="16" height="16"/>
			<rect x="296" y="448" width="16" height="16"/>
			<rect x="264" y="448" width="16" height="16"/>
			<rect x="328" y="416" width="16" height="16"/>
			<rect x="296" y="416" width="16" height="16"/>
			<rect x="328" y="384" width="16" height="16"/>
			<rect x="448" y="144" width="16" height="16"/>
			<rect x="425.352" y="153.349" transform="matrix(0.7071 0.7071 -0.7071 0.7071 241.0167 -259.1682)" width="16" height="16"/>
			<rect x="416" y="176" width="16" height="16"/>
			<rect x="425.358" y="198.635" transform="matrix(0.7071 0.7071 -0.7071 0.7071 273.0407 -245.9086)" width="16" height="16"/>
			<rect x="448" y="208" width="16" height="16"/>
			<rect x="470.621" y="198.629" transform="matrix(-0.7071 -0.7071 0.7071 -0.7071 670.9476 691.1732)" width="16" height="16"/>
			<rect x="480" y="176" width="16" height="16"/>
			<rect x="470.606" y="153.343" transform="matrix(0.7071 0.7071 -0.7071 0.7071 254.267 -291.1696)" width="16" height="16"/>
			<rect x="32" y="40" width="16" height="16"/>
			<rect x="9.379" y="49.372" transform="matrix(-0.7071 -0.7071 0.7071 -0.7071 -10.9008 110.2288)" width="16" height="16"/>
			<rect y="72" width="16" height="16"/>
			<rect x="9.374" y="94.623" transform="matrix(-0.7071 -0.7071 0.7071 -0.7071 -42.9067 187.4732)" width="16" height="16"/>
			<rect x="32" y="104" width="16" height="16"/>
			<rect x="54.625" y="94.628" transform="matrix(0.7071 -0.7071 0.7071 0.7071 -54.2267 74.3412)" width="16" height="16"/>
			<rect x="64" y="72" width="16" height="16"/>
			<rect x="54.622" y="49.377" transform="matrix(0.7071 0.7071 -0.7071 0.7071 58.9132 -27.4748)" width="16" height="16"/>
			<rect x="72" y="136" width="16" height="16"/>
			<rect x="49.365" y="145.366" transform="matrix(0.7071 0.7071 -0.7071 0.7071 125.2478 4.3566)" width="16" height="16"/>
			<rect x="40" y="168" width="16" height="16"/>
			<rect x="49.371" y="190.621" transform="matrix(0.7071 0.7071 -0.7071 0.7071 157.2495 17.607)" width="16" height="16"/>
			<rect x="72" y="200" width="16" height="16"/>
			<rect x="94.622" y="190.626" transform="matrix(-0.7071 -0.7071 0.7071 -0.7071 34.7373 411.6399)" width="16" height="16"/>
			<rect x="104" y="168" width="16" height="16"/>
			<rect x="94.616" y="145.363" transform="matrix(0.7071 0.7071 -0.7071 0.7071 138.4998 -27.6413)" width="16" height="16"/>
			<rect x="408" width="16" height="16"/>
			<rect x="385.361" y="9.39" transform="matrix(0.7071 0.7071 -0.7071 0.7071 127.5092 -273.0549)" width="16" height="16"/>
			<rect x="376" y="32" width="16" height="16"/>
			<rect x="385.364" y="54.617" transform="matrix(-0.7071 -0.7071 0.7071 -0.7071 627.2375 385.0435)" width="16" height="16"/>
			<rect x="408" y="64" width="16" height="16"/>
			<rect x="430.626" y="54.61" transform="matrix(0.7071 0.7071 -0.7071 0.7071 172.7428 -291.8173)" width="16" height="16"/>
			<rect x="440" y="32" width="16" height="16"/>
			<rect x="430.631" y="9.416" transform="matrix(0.7071 0.7071 -0.7071 0.7071 140.7867 -305.0582)" width="16" height="16"/>
		</g>
	</g>
</g>
</svg>