<?xml version="1.0" encoding="iso-8859-1"?>
<!-- Uploaded to: SVG Repo, www.svgrepo.com, Generator: SVG Repo Mixer Tools -->
<svg fill="#FFFFFF" height="800px" width="800px" version="1.1" id="Layer_1" xmlns="http://www.w3.org/2000/svg" xmlns:xlink="http://www.w3.org/1999/xlink" 
	 viewBox="0 0 496 496" xml:space="preserve">
<g>
	<g>
		<path d="M258.064,45.726c2.288-4.584,6.4-8.16,11.28-9.784l52.032-17.344C338.48,12.91,358,16.83,371.552,28.702l45.832,40.104
			c0.52,0.464,1.008,0.96,1.472,1.544l65.304,81.608H496v-16h-4.16L431.384,60.39c-1.04-1.312-2.192-2.512-3.464-3.624
			l-45.84-40.112C364.32,1.11,338.72-4.058,316.304,3.43L264.28,20.766c-6.408,2.136-12.048,6.16-16.28,11.36
			c-4.232-5.2-9.872-9.224-16.28-11.352L179.688,3.43c-22.408-7.496-48.016-2.32-65.776,13.224l-45.848,40.12
			c-1.256,1.096-2.416,2.304-3.424,3.576L4.16,135.958H0v16h11.84L77.168,70.31c0.432-0.544,0.912-1.048,1.432-1.504l45.84-40.112
			C138,16.83,157.52,12.902,174.616,18.59l52.04,17.352c4.872,1.616,8.984,5.184,11.28,9.792c1.352,2.688,2.064,5.704,2.064,8.72
			v37.504c0,6.616-5.384,12-12,12c-6.616,0-12-5.384-12-12v-5.584c0-12.072-7.696-22.744-19.136-26.552l-3.2-1.072
			c-22.056-7.344-45.928-0.56-60.824,17.296C119.408,92.174,112,112.622,112,133.622c0,23.344,18.992,42.336,42.336,42.336
			c13.872,0,27.736,2.536,40.752,7.336c-11.376,12.352-18.472,28.648-18.984,46.6c-10.504-3.776-21.56-5.936-32.808-5.936h-18.872
			c-15.304,0-29.696,5.96-40.512,16.784c-14.984,14.968-34.888,23.216-56.064,23.216H0v16h27.848
			c25.448,0,49.376-9.912,67.368-27.904c7.8-7.8,18.176-12.096,29.208-12.096h18.872c11.304,0,22.424,2.408,32.704,6.936v41.064h-48
			v208h240v-208h-48v-41.064c10.28-4.528,21.4-6.936,32.704-6.936h18.872c11.032,0,21.408,4.296,29.2,12.096
			c18,17.992,41.928,27.904,67.376,27.904H496v-16h-27.848c-21.168,0-41.08-8.248-56.056-23.216
			c-10.824-10.824-25.216-16.784-40.52-16.784h-18.872c-17.608,0-34.904,4.792-50.008,13.848l-11.376,6.832
			c-3.616,2.168-7.768,3.32-12,3.32c-12.856,0-23.32-10.464-23.32-23.32v-5.32c0-8.888,4.936-16.88,12.888-20.856l20.032-10.016
			l0.216-0.104c16.216-8.096,34.384-12.384,52.528-12.384c23.344,0,42.336-18.992,42.336-42.336c0-21-7.408-41.448-20.84-57.576
			c-14.896-17.856-38.784-24.64-60.832-17.296l-3.184,1.064C287.696,63.63,280,74.302,280,86.374v5.584c0,6.616-5.384,12-12,12
			c-6.616,0-12-5.384-12-12V54.454C256,51.438,256.712,48.422,258.064,45.726z M192,231.958c0-16.56,7.272-31.424,18.736-41.688
			l16.368,8.184c7.96,3.984,12.896,11.976,12.896,20.864v5.32c0,12.856-10.464,23.32-23.32,23.32c-4.232,0-8.384-1.152-12-3.32
			l-11.376-6.832c-0.424-0.248-0.88-0.416-1.304-0.664V231.958z M320,303.958h32v176h-16v-16h-16v16h-16v-16h-16v16h-16v-16h-16v16
			h-16v-16h-16v16h-16v-16h-16v16h-16v-16h-16v16h-16v-176h32v32h16v-32h112v32h16V303.958z M279.32,263.958
			c7.136,0,14.136-1.936,20.232-5.6l4.448-2.672v32.272H192v-32.272l4.448,2.672c6.104,3.664,13.104,5.6,20.232,5.6
			c12.832,0,24.136-6.272,31.32-15.808C255.184,257.686,266.488,263.958,279.32,263.958z M261.736,184.142
			c-5.544,2.776-10.16,6.752-13.736,11.464c-3.576-4.72-8.192-8.696-13.736-11.464l-7.76-3.88c6.624-2.76,13.88-4.304,21.496-4.304
			c7.408,0,14.56,1.616,21.28,4.416L261.736,184.142z M268,119.958c15.44,0,28-12.56,28-28v-5.584c0-5.168,3.296-9.744,8.208-11.384
			l3.184-1.072c15.752-5.248,32.832-0.4,43.464,12.376C361.912,99.55,368,116.358,368,133.622c0,14.52-11.816,26.336-26.336,26.336
			c-18.72,0-37.44,4.056-54.528,11.68c-11.696-7.64-25.12-11.68-39.136-11.68c-14.44,0-27.88,4.312-39.16,11.664
			c-17.08-7.616-35.792-11.664-54.504-11.664c-14.52,0-26.336-11.816-26.336-26.336c0-17.264,6.088-34.072,17.144-47.328
			c10.64-12.776,27.704-17.624,43.456-12.376l3.2,1.08c4.904,1.632,8.2,6.2,8.2,11.376v5.584c0,15.44,12.56,28,28,28
			c7.84,0,14.912-3.256,20-8.464C253.088,116.702,260.16,119.958,268,119.958z"/>
	</g>
</g>
</svg>